<svg width="1024" height="1024" viewBox="0 0 1024 1024" fill="none" xmlns="http://www.w3.org/2000/svg">
<path d="M533.148 285.219C523.885 287.58 513.611 290.11 510.411 290.953C501.652 293.315 475.883 312.712 468.641 322.494L462.409 330.759L455.167 326.205C448.093 321.651 408.681 311.194 399.081 311.194C393.523 311.194 353.438 320.639 346.364 323.675C337.606 327.386 204.044 407.166 191.244 416.274C174.906 428.081 171.033 431.791 160.927 445.285C148.969 461.308 149.306 460.634 142.232 490.825L136 517.475L142.569 545.474L149.137 573.473L161.769 591.014C178.106 613.784 182.654 616.989 273.604 671.131L345.859 714.142L372.133 720.214C386.618 723.587 400.765 727.129 403.46 728.141C406.323 729.153 421.987 733.37 438.493 737.587L468.473 745.008L493.736 738.936C517.653 733.201 519.842 732.358 532.306 723.587C539.548 718.527 547.801 711.612 550.664 708.238L556.054 702.335L565.654 708.744C573.739 714.142 579.465 716.166 600.181 721.057L624.94 726.623L649.025 721.057C662.162 718.021 675.973 713.973 679.678 712.118C694.837 704.696 823.682 627.109 834.63 619.013C848.609 608.556 852.315 604.676 864.61 587.303C873.536 574.822 874.379 572.798 879.937 549.016C883.305 535.185 886 520.848 886 517.137C886 513.427 883.305 499.09 880.105 485.428C874.042 460.465 874.042 460.465 862.757 445.453C847.599 425.045 838.336 418.635 750.249 366.179C681.363 325.193 676.815 322.832 661.825 319.121C649.362 315.916 643.635 313.386 634.709 307.146C628.645 302.929 620.056 297.869 616.013 296.013C606.75 291.797 561.444 280.833 554.707 281.002C552.18 281.002 542.411 283.026 533.148 285.219ZM576.77 311.194C599.339 316.591 608.771 320.47 625.445 331.94C633.024 337.168 639.593 339.867 649.362 342.228C656.773 343.915 665.194 346.445 667.889 347.963C682.036 355.047 811.051 432.803 821.325 440.393C832.104 448.321 845.578 463.164 850.125 472.272C851.136 474.127 853.999 484.922 856.526 496.223L861.241 516.969L856.526 537.546C851.304 560.991 850.294 563.352 838.841 579.039C828.062 593.881 821.661 598.098 736.943 648.699L667.889 689.854L646.667 695.251L625.445 700.817L604.897 695.926C586.371 691.54 583.507 690.191 572.728 682.264C566.159 677.372 558.749 670.963 556.222 667.758L551.506 662.192L542.917 675.179C527.422 698.793 515.126 707.732 490.705 713.636C481.61 715.828 472.009 717.684 469.146 717.684C460.051 717.684 425.524 708.913 414.913 703.853C409.187 700.986 403.629 699.299 402.618 699.974C400.092 701.492 362.87 692.721 354.617 688.504C342.153 682.264 214.992 605.857 204.044 598.267C194.444 591.351 179.791 574.316 173.896 563.184C171.033 557.786 163.453 524.39 163.453 517.306C163.453 514.101 165.475 502.969 167.832 492.68C171.706 476.657 173.559 472.272 180.801 461.814C192.086 445.622 200.002 440.056 286.067 388.781L357.311 346.445L378.365 341.216L399.25 336.156L418.282 340.71C438.156 345.602 448.261 350.831 462.578 363.818L469.483 370.059L472.346 363.818C474.031 360.445 479.42 351.843 484.305 344.927C497.442 326.374 511.59 316.928 535.338 311.025C545.275 308.495 553.864 306.471 554.538 306.302C555.212 306.133 565.149 308.326 576.77 311.194Z" fill="#B92626" style="fill:#B92626;fill:color(display-p3 0.7255 0.1490 0.1490);fill-opacity:1;"/>
</svg>
