<svg width="1024" height="1024" viewBox="0 0 1024 1024" fill="none" xmlns="http://www.w3.org/2000/svg">
<path d="M532.938 310.123C518.285 313.665 514.58 315.52 504.306 323.11C492.684 331.881 479.379 347.736 472.81 360.555C470.957 364.266 469.273 367.47 468.936 367.808C468.768 367.976 465.905 365.784 462.704 362.747C449.567 350.435 438.788 344.531 421.103 340.315C399.713 335.086 397.355 335.086 374.618 340.821C356.259 345.543 355.754 345.712 284.342 388.385C244.762 411.83 207.203 434.937 200.971 439.66C194.402 444.552 185.644 453.322 180.591 460.069C172.338 471.032 171.328 473.394 166.444 494.477L161.054 516.91L165.77 537.488C171.328 561.27 170.991 560.764 182.949 577.462C189.013 586.064 195.75 592.98 203.329 598.377C209.392 602.762 246.277 625.364 285.184 648.64L355.754 690.638L375.291 695.53C386.071 698.228 397.692 700.421 401.061 700.421C404.429 700.421 409.819 701.939 413.187 703.795C416.387 705.819 429.861 710.035 443.167 713.24L467.252 719.312L487.631 714.758C506.327 710.541 508.853 709.529 519.632 701.433C527.548 695.53 534.285 688.446 541.359 678.326L551.465 663.989L559.044 671.579C573.192 686.084 583.297 691.482 605.024 696.373L624.73 701.096L644.436 696.373C655.215 693.843 666.5 690.47 669.194 689.12C681.49 682.711 808.483 606.473 817.914 599.726C829.536 591.462 835.431 585.221 845.031 571.053C850.252 563.294 852.61 557.222 856.147 542.21C861.537 518.597 861.537 515.224 856.147 491.61C852.273 474.743 850.757 471.201 843.01 460.575C836.947 451.804 830.546 445.732 820.946 438.817C809.325 430.383 683.679 354.82 669.194 347.399C666.331 345.881 657.236 343.013 648.983 340.989C637.025 337.953 631.804 335.592 622.877 329.014C608.73 318.725 601.319 315.689 577.908 310.123C555.507 304.894 554.496 304.894 532.938 310.123ZM572.181 381.807C589.697 389.397 595.761 397.324 592.729 408.625C590.203 417.902 485.779 634.472 480.726 640.881C477.021 645.604 475.336 646.447 468.936 646.447C454.788 646.447 434.409 635.821 430.872 626.713C429.861 624.014 429.861 620.135 431.04 615.75C432.725 609.846 513.232 439.492 532.938 400.192C539.843 386.53 545.065 379.952 550.623 377.759C554.328 376.241 563.086 377.928 572.181 381.807ZM407.461 409.469C417.229 414.529 428.514 435.949 426.493 445.732C424.977 453.66 416.387 460.069 366.702 489.417C340.933 504.597 319.879 517.585 319.879 518.26C319.879 518.934 338.238 530.235 360.807 543.56C417.735 577.125 423.63 581.173 425.988 588.257C426.998 591.462 427.503 596.522 426.83 599.22C424.977 607.822 413.187 623.846 406.282 627.051C400.724 629.749 399.376 629.749 392.471 627.557C388.26 626.039 352.891 605.967 313.984 582.691C250.993 545.078 242.74 539.68 238.53 533.102C234.319 526.693 233.814 524.669 234.319 515.224C234.824 506.115 235.667 503.923 239.877 499.706C244.593 495.152 378.492 414.36 389.776 409.3C396.513 406.264 401.566 406.433 407.461 409.469ZM634.162 410.143C642.752 414.023 773.45 491.779 780.861 497.345C791.472 505.441 792.482 523.994 783.05 535.464C779.682 539.512 756.271 554.355 707.932 583.365C669.363 606.304 634.499 626.207 630.625 627.725C624.225 629.918 623.214 629.918 616.982 626.882C607.887 622.496 597.445 606.642 596.435 595.51C595.761 587.751 595.929 587.076 602.329 581.004C606.035 577.631 630.457 562.282 656.562 546.933C682.5 531.584 703.89 518.766 703.89 518.26C703.89 517.754 684.016 505.609 659.763 491.273C635.509 476.936 612.267 462.936 608.393 460.238C600.645 455.178 596.098 448.431 596.098 442.022C596.098 436.793 603.003 422.456 608.73 415.709C616.477 406.433 622.877 405.083 634.162 410.143Z" fill="url(#paint0_linear_1_8)" stroke="url(#paint1_linear_1_8)" style="" stroke-width="3.2" stroke-linejoin="bevel"/>
<defs>
<linearGradient id="paint0_linear_1_8" x1="510.622" y1="862.828" x2="510.622" y2="162.686" gradientUnits="userSpaceOnUse">
<stop stop-color="#C92E2E" style="stop-color:#C92E2E;stop-color:color(display-p3 0.7882 0.1804 0.1804);stop-opacity:1;"/>
<stop offset="0.99446" stop-color="#F25454" style="stop-color:#F25454;stop-color:color(display-p3 0.9490 0.3294 0.3294);stop-opacity:1;"/>
</linearGradient>
<linearGradient id="paint1_linear_1_8" x1="510.622" y1="862.828" x2="510.622" y2="162.686" gradientUnits="userSpaceOnUse">
<stop stop-color="#C82D2D" style="stop-color:#C82D2D;stop-color:color(display-p3 0.7843 0.1765 0.1765);stop-opacity:1;"/>
<stop offset="1" stop-color="#F35353" style="stop-color:#F35353;stop-color:color(display-p3 0.9529 0.3255 0.3255);stop-opacity:1;"/>
</linearGradient>
</defs>
</svg>
